<svg width="22" height="22" viewBox="0 0 22 22" fill="none" xmlns="http://www.w3.org/2000/svg">
<path d="M9.81613 15.1262C10.0813 15.4444 10.5542 15.4874 10.8724 15.2222C11.1906 14.9571 11.2336 14.4841 10.9685 14.1659L10.3923 14.6461L9.81613 15.1262ZM7.35393 11L6.77776 10.5199C6.54598 10.798 6.54598 11.202 6.77776 11.4802L7.35393 11ZM10.9685 7.83412C11.2336 7.51591 11.1906 7.04299 10.8724 6.77781C10.5542 6.51264 10.0813 6.55563 9.81613 6.87384L10.3923 7.35398L10.9685 7.83412ZM14.646 11.75C15.0602 11.75 15.396 11.4142 15.396 11C15.396 10.5858 15.0602 10.25 14.646 10.25V11V11.75ZM10.3923 14.6461L10.9685 14.1659L7.9301 10.5199L7.35393 11L6.77776 11.4802L9.81613 15.1262L10.3923 14.6461ZM7.35393 11L7.93009 11.4802L10.9685 7.83412L10.3923 7.35398L9.81613 6.87384L6.77776 10.5199L7.35393 11ZM7.35393 11V11.75H14.646V11V10.25H7.35393V11ZM5.16637 5.16637L5.6967 5.6967C8.62563 2.76777 13.3744 2.76777 16.3033 5.6967L16.8336 5.16637L17.364 4.63604C13.8492 1.12132 8.15076 1.12132 4.63604 4.63604L5.16637 5.16637ZM16.8336 5.16637L16.3033 5.6967C19.2322 8.62563 19.2322 13.3744 16.3033 16.3033L16.8336 16.8336L17.364 17.364C20.8787 13.8492 20.8787 8.15076 17.364 4.63604L16.8336 5.16637ZM16.8336 16.8336L16.3033 16.3033C13.3744 19.2322 8.62563 19.2322 5.6967 16.3033L5.16637 16.8336L4.63604 17.364C8.15076 20.8787 13.8492 20.8787 17.364 17.364L16.8336 16.8336ZM5.16637 16.8336L5.6967 16.3033C2.76777 13.3744 2.76777 8.62563 5.6967 5.6967L5.16637 5.16637L4.63604 4.63604C1.12132 8.15076 1.12132 13.8492 4.63604 17.364L5.16637 16.8336Z" fill="black"/>
</svg>
