<svg width="141" height="36" viewBox="0 0 141 36" fill="none" xmlns="http://www.w3.org/2000/svg">
<g clip-path="url(#clip0_597_417)">
<path d="M56.9079 25.36H38.3352C38.4823 27.2933 39.2043 28.8533 40.5014 30.0267C41.7984 31.2 43.3895 31.7867 45.2615 31.7867C47.9625 31.7867 49.8746 30.6533 50.9978 28.4H56.4265C55.6911 30.6267 54.3674 32.4533 52.4285 33.88C50.5031 35.3067 48.1096 36.0133 45.2615 36.0133C42.9349 36.0133 40.8624 35.4933 39.0171 34.4533C37.1719 33.4133 35.7412 31.9467 34.6982 30.0533C33.6553 28.16 33.1338 25.9733 33.1338 23.48C33.1338 20.9867 33.6419 18.8 34.6581 16.9067C35.6743 15.0133 37.1051 13.56 38.9369 12.5333C40.7822 11.5067 42.8814 11 45.2749 11C47.6684 11 49.6206 11.4933 51.4123 12.4933C53.2041 13.4933 54.608 14.8933 55.5975 16.6933C56.6004 18.4933 57.0951 20.5733 57.0951 22.92C57.0951 23.8267 57.0416 24.6533 56.9213 25.3867L56.9079 25.36ZM51.8268 21.3067C51.8001 19.4533 51.1315 17.9733 49.8345 16.8667C48.5375 15.7467 46.9329 15.2 45.0208 15.2C43.2826 15.2 41.7984 15.7467 40.5682 16.8533C39.3381 17.96 38.6026 19.44 38.362 21.32H51.8134L51.8268 21.3067Z" fill="#1E4635"/>
<path d="M68.875 12C70.0918 11.3066 71.5493 10.96 73.2207 10.96V16.1466H71.9371C69.9715 16.1466 68.4739 16.6533 67.4577 17.64C66.4415 18.64 65.9334 20.3733 65.9334 22.8266V35.5866H60.9058V11.36H65.9334V14.88C66.6688 13.6533 67.6449 12.6933 68.8617 12H68.875Z" fill="#1E4635"/>
<path d="M98.8669 25.36H80.2942C80.4413 27.2933 81.1633 28.8533 82.4603 30.0267C83.7574 31.2 85.3485 31.7867 87.2205 31.7867C89.9215 31.7867 91.8336 30.6533 92.9568 28.4H98.3855C97.6501 30.6267 96.3263 32.4533 94.3875 33.88C92.462 35.3067 90.0686 36.0133 87.2205 36.0133C84.8939 36.0133 82.8214 35.4933 80.9761 34.4533C79.1309 33.4133 77.7002 31.9467 76.6572 30.0533C75.6143 28.16 75.0928 25.9733 75.0928 23.48C75.0928 20.9867 75.6009 18.8 76.6171 16.9067C77.6333 15.0133 79.064 13.56 80.8959 12.5333C82.7411 11.5067 84.8404 11 87.2339 11C89.6273 11 91.5795 11.4933 93.3713 12.4933C95.163 13.4933 96.567 14.8933 97.5565 16.6933C98.5593 18.4933 99.0541 20.5733 99.0541 22.92C99.0541 23.8267 99.0006 24.6533 98.8803 25.3867L98.8669 25.36ZM93.7858 21.3067C93.7591 19.4533 93.0905 17.9733 91.7935 16.8667C90.4965 15.7467 88.8919 15.2 86.9798 15.2C85.2416 15.2 83.7574 15.7467 82.5272 16.8533C81.297 17.96 80.5616 19.44 80.3209 21.32H93.7724L93.7858 21.3067Z" fill="#1E4635"/>
<path d="M110.848 12C112.064 11.3066 113.522 10.96 115.193 10.96V16.1466H113.91C111.944 16.1466 110.447 16.6533 109.43 17.64C108.414 18.64 107.906 20.3733 107.906 22.8266V35.5866H102.878V11.36H107.906V14.88C108.641 13.6533 109.618 12.6933 110.834 12H110.848Z" fill="#1E4635"/>
<path d="M140.826 25.36H122.253C122.4 27.2933 123.122 28.8533 124.419 30.0267C125.716 31.2 127.308 31.7867 129.179 31.7867C131.88 31.7867 133.793 30.6533 134.916 28.4H140.345C139.609 30.6267 138.285 32.4533 136.346 33.88C134.421 35.3067 132.028 36.0133 129.179 36.0133C126.853 36.0133 124.78 35.4933 122.935 34.4533C121.09 33.4133 119.659 31.9467 118.616 30.0533C117.573 28.16 117.052 25.9733 117.052 23.48C117.052 20.9867 117.56 18.8 118.576 16.9067C119.592 15.0133 121.023 13.56 122.855 12.5333C124.7 11.5067 126.799 11 129.193 11C131.586 11 133.539 11.4933 135.33 12.4933C137.122 13.4933 138.526 14.8933 139.515 16.6933C140.518 18.4933 141.013 20.5733 141.013 22.92C141.013 23.8267 140.96 24.6533 140.839 25.3867L140.826 25.36ZM135.745 21.3067C135.718 19.4533 135.049 17.9733 133.752 16.8667C132.455 15.7467 130.851 15.2 128.939 15.2C127.201 15.2 125.716 15.7467 124.486 16.8533C123.256 17.96 122.521 19.44 122.28 21.32H135.731L135.745 21.3067Z" fill="#1E4635"/>
<path d="M17.864 0.266816C16.7408 -0.0398503 15.7246 0.666816 15.6043 1.82682L15.2299 5.58682C15.1764 6.08015 15.3235 6.54682 15.5775 6.93348C18.0111 8.42682 19.736 12.2668 19.736 16.7735C19.736 22.5735 16.8745 27.2801 13.3312 27.2935H11.0447H13.3178C9.77439 27.2935 6.89957 22.5868 6.89957 16.7735C6.89957 12.1468 8.73144 8.21348 11.2586 6.81348C11.4859 6.37348 11.6063 5.88015 11.5528 5.36015L11.1784 1.44015C11.0982 0.613483 10.4028 -0.0131836 9.57383 -0.0131836H2.59403C1.1633 0.000149738 0 1.16015 0 2.58682V36.0001H11.4859C22.0893 36.0001 30.1923 30.8268 30.1923 17.9068C30.1789 7.66682 25.6327 2.37348 17.864 0.266816Z" fill="#1E4635"/>
</g>
<defs>
<clipPath id="clip0_597_417">
<rect width="141" height="36" fill="white"/>
</clipPath>
</defs>
</svg>
