<svg width="67" height="68" viewBox="0 0 67 68" fill="none" xmlns="http://www.w3.org/2000/svg">
<path d="M66.5625 33.8125C66.5625 51.9343 51.662 66.625 33.2812 66.625C14.9005 66.625 0 51.9343 0 33.8125C0 15.6907 14.9005 1 33.2812 1C51.662 1 66.5625 15.6907 66.5625 33.8125Z" fill="#FFC116"/>
<path d="M64.4153 33.8125C64.4153 16.8598 50.4761 3.11694 33.2812 3.11694C16.0864 3.11694 2.14718 16.8598 2.14718 33.8125C2.14718 50.7652 16.0864 64.5081 33.2812 64.5081V66.625C14.9005 66.625 0 51.9343 0 33.8125C0 15.6907 14.9005 1 33.2812 1C51.662 1 66.5625 15.6907 66.5625 33.8125C66.5625 51.9343 51.662 66.625 33.2812 66.625V64.5081C50.4761 64.5081 64.4153 50.7652 64.4153 33.8125Z" fill="#BFA92B"/>
<g filter="url(#filter0_d_304_507)">
<path d="M55.3125 33.8125C55.3125 46.2389 45.4488 56.3125 33.2813 56.3125C21.1137 56.3125 11.25 46.2389 11.25 33.8125C11.25 21.3861 21.1137 11.3125 33.2813 11.3125C45.4488 11.3125 55.3125 21.3861 55.3125 33.8125Z" fill="#FFC116"/>
</g>
<g filter="url(#filter1_d_304_507)">
<path d="M38.4375 15.0625V53.5H30.5912V22.6631H30.2687L21.5625 28.2007V21.143L31.0211 15.0625H38.4375Z" fill="#FFC116"/>
</g>
<defs>
<filter id="filter0_d_304_507" x="0.25" y="0.3125" width="66.0625" height="67" filterUnits="userSpaceOnUse" color-interpolation-filters="sRGB">
<feFlood flood-opacity="0" result="BackgroundImageFix"/>
<feColorMatrix in="SourceAlpha" type="matrix" values="0 0 0 0 0 0 0 0 0 0 0 0 0 0 0 0 0 0 127 0" result="hardAlpha"/>
<feOffset/>
<feGaussianBlur stdDeviation="5.5"/>
<feComposite in2="hardAlpha" operator="out"/>
<feColorMatrix type="matrix" values="0 0 0 0 0 0 0 0 0 0 0 0 0 0 0 0 0 0 0.25 0"/>
<feBlend mode="normal" in2="BackgroundImageFix" result="effect1_dropShadow_304_507"/>
<feBlend mode="normal" in="SourceGraphic" in2="effect1_dropShadow_304_507" result="shape"/>
</filter>
<filter id="filter1_d_304_507" x="15.5625" y="9.0625" width="28.875" height="50.4375" filterUnits="userSpaceOnUse" color-interpolation-filters="sRGB">
<feFlood flood-opacity="0" result="BackgroundImageFix"/>
<feColorMatrix in="SourceAlpha" type="matrix" values="0 0 0 0 0 0 0 0 0 0 0 0 0 0 0 0 0 0 127 0" result="hardAlpha"/>
<feOffset/>
<feGaussianBlur stdDeviation="3"/>
<feComposite in2="hardAlpha" operator="out"/>
<feColorMatrix type="matrix" values="0 0 0 0 0 0 0 0 0 0 0 0 0 0 0 0 0 0 0.64 0"/>
<feBlend mode="normal" in2="BackgroundImageFix" result="effect1_dropShadow_304_507"/>
<feBlend mode="normal" in="SourceGraphic" in2="effect1_dropShadow_304_507" result="shape"/>
</filter>
</defs>
</svg>
