<svg width="38" height="38" viewBox="0 0 38 38" fill="none" xmlns="http://www.w3.org/2000/svg">
<path fill-rule="evenodd" clip-rule="evenodd" d="M6.02669 9.82678C7.4519 8.402 9.38464 7.6016 11.3999 7.6016C13.4151 7.6016 15.3479 8.402 16.7731 9.82678L18.9999 12.0517L21.2267 9.82678C21.9278 9.1009 22.7664 8.52192 23.6936 8.12361C24.6208 7.7253 25.6181 7.51565 26.6272 7.50688C27.6364 7.49811 28.6371 7.6904 29.5711 8.07254C30.5051 8.45467 31.3537 9.019 32.0673 9.73258C32.7809 10.4462 33.3452 11.2947 33.7273 12.2287C34.1095 13.1627 34.3018 14.1635 34.293 15.1726C34.2842 16.1818 34.0746 17.179 33.6763 18.1063C33.2779 19.0335 32.699 19.8721 31.9731 20.5732L18.9999 33.5483L6.02669 20.5732C4.60191 19.148 3.80151 17.2152 3.80151 15.2C3.80151 13.1847 4.60191 11.252 6.02669 9.82678Z" fill="#FF1313"/>
</svg>
