<svg width="85" height="102" viewBox="0 0 85 102" fill="none" xmlns="http://www.w3.org/2000/svg">
<path d="M0 85.3469V16.6531C5.96295e-05 7.42186 7.49665 0 16.6663 0H60.0572C63.1256 0.000352636 66.0061 1.28631 68.0704 3.45177C69.712 5.17392 72.2482 7.7603 74.6463 9.89995C76.8158 11.8355 80.0978 15.1833 81.9591 17.1084C83.9282 19.1459 85.0001 21.8596 85 24.6584V85.3469C84.9998 94.578 77.5032 102 68.3336 102H16.6663C7.4967 102 0.000113375 94.578 0 85.3469ZM20.096 79.6224V56.7245C20.096 53.8504 22.4165 51.5204 25.2789 51.5204C28.141 51.5209 30.4618 53.8507 30.4618 56.7245V79.6224C30.4618 82.4963 28.141 84.8261 25.2789 84.8265C22.4165 84.8265 20.096 82.4966 20.096 79.6224ZM37.3171 79.6224V33.8265C37.3171 30.9527 39.638 28.6229 42.5 28.6224C45.3624 28.6224 47.6829 30.9524 47.6829 33.8265V79.6224C47.6829 82.4966 45.3624 84.8265 42.5 84.8265C39.638 84.826 37.3171 82.4963 37.3171 79.6224ZM54.5422 79.6224V56.7245C54.5422 53.8504 56.8627 51.5204 59.7251 51.5204C62.5869 51.5212 64.908 53.8508 64.9081 56.7245V79.6224C64.9081 82.4961 62.5869 84.8258 59.7251 84.8265C56.8627 84.8265 54.5422 82.4966 54.5422 79.6224ZM62.0372 22.3776C62.0372 22.631 62.2538 22.898 62.596 22.898H73.0874C71.3126 21.0862 69.1861 18.9516 67.7627 17.6817C65.7267 15.8652 63.6623 13.8196 62.0372 12.1564V22.3776ZM10.3659 85.3469C10.366 88.7618 13.1536 91.5918 16.6663 91.5918H68.3336C71.8464 91.5918 74.6341 88.7618 74.6341 85.3469V33.3061H62.596C56.5969 33.3061 51.6713 28.4472 51.6713 22.3776V10.4082H16.6663C13.1536 10.4082 10.3659 13.2381 10.3659 16.6531V85.3469Z" fill="#D5F08A"/>
</svg>
