<svg width="46" height="46" viewBox="0 0 46 46" fill="none" xmlns="http://www.w3.org/2000/svg">
<path d="M23.8871 31.1997C24.4174 31.8361 25.3633 31.9221 25.9997 31.3918C26.6361 30.8614 26.7221 29.9156 26.1917 29.2792L25.0394 30.2394L23.8871 31.1997ZM18.6864 22.6159L17.5341 21.6556C17.0706 22.2119 17.0706 23.0199 17.5341 23.5762L18.6864 22.6159ZM26.1917 15.9526C26.7221 15.3162 26.6361 14.3704 25.9997 13.84C25.3633 13.3097 24.4174 13.3957 23.8871 14.0321L25.0394 14.9923L26.1917 15.9526ZM25.0394 30.2394L26.1917 29.2792L19.8388 21.6556L18.6864 22.6159L17.5341 23.5762L23.8871 31.1997L25.0394 30.2394ZM18.6864 22.6159L19.8388 23.5762L26.1917 15.9526L25.0394 14.9923L23.8871 14.0321L17.5341 21.6556L18.6864 22.6159ZM23 5.75V7.25C31.6985 7.25 38.75 14.3015 38.75 23H40.25H41.75C41.75 12.6447 33.3553 4.25 23 4.25V5.75ZM40.25 23H38.75C38.75 31.6985 31.6985 38.75 23 38.75V40.25V41.75C33.3553 41.75 41.75 33.3553 41.75 23H40.25ZM23 40.25V38.75C14.3015 38.75 7.25 31.6985 7.25 23H5.75H4.25C4.25 33.3553 12.6447 41.75 23 41.75V40.25ZM5.75 23H7.25C7.25 14.3015 14.3015 7.25 23 7.25V5.75V4.25C12.6447 4.25 4.25 12.6447 4.25 23H5.75Z" fill="white"/>
</svg>
