<svg width="141" height="36" viewBox="0 0 141 36" fill="none" xmlns="http://www.w3.org/2000/svg">
<g clip-path="url(#clip0_597_222)">
<path d="M56.9081 25.36H38.3354C38.4825 27.2933 39.2046 28.8533 40.5016 30.0267C41.7986 31.2 43.3898 31.7867 45.2617 31.7867C47.9627 31.7867 49.8748 30.6533 50.998 28.4H56.4267C55.6913 30.6267 54.3676 32.4533 52.4287 33.88C50.5033 35.3067 48.1098 36.0133 45.2617 36.0133C42.9351 36.0133 40.8626 35.4933 39.0174 34.4533C37.1721 33.4133 35.7414 31.9467 34.6984 30.0533C33.6555 28.16 33.134 25.9733 33.134 23.48C33.134 20.9867 33.6421 18.8 34.6583 16.9067C35.6745 15.0133 37.1053 13.56 38.9371 12.5333C40.7824 11.5067 42.8817 11 45.2751 11C47.6686 11 49.6208 11.4933 51.4125 12.4933C53.2043 13.4933 54.6083 14.8933 55.5977 16.6933C56.6006 18.4933 57.0953 20.5733 57.0953 22.92C57.0953 23.8267 57.0418 24.6533 56.9215 25.3867L56.9081 25.36ZM51.827 21.3067C51.8003 19.4533 51.1317 17.9733 49.8347 16.8667C48.5377 15.7467 46.9331 15.2 45.0211 15.2C43.2828 15.2 41.7986 15.7467 40.5684 16.8533C39.3383 17.96 38.6028 19.44 38.3622 21.32H51.8137L51.827 21.3067Z" fill="#1E4635"/>
<path d="M68.8754 12C70.0922 11.3067 71.5496 10.96 73.221 10.96V16.1467H71.9374C69.9718 16.1467 68.4743 16.6533 67.458 17.64C66.4418 18.64 65.9337 20.3733 65.9337 22.8267V35.5867H60.9061V11.36H65.9337V14.88C66.6691 13.6533 67.6452 12.6933 68.862 12H68.8754Z" fill="#1E4635"/>
<path d="M98.8671 25.36H80.2945C80.4415 27.2933 81.1636 28.8533 82.4606 30.0267C83.7576 31.2 85.3488 31.7867 87.2208 31.7867C89.9218 31.7867 91.8339 30.6533 92.957 28.4H98.3858C97.6504 30.6267 96.3266 32.4533 94.3878 33.88C92.4623 35.3067 90.0689 36.0133 87.2208 36.0133C84.8942 36.0133 82.8216 35.4933 80.9764 34.4533C79.1312 33.4133 77.7004 31.9467 76.6575 30.0533C75.6145 28.16 75.093 25.9733 75.093 23.48C75.093 20.9867 75.6011 18.8 76.6174 16.9067C77.6336 15.0133 79.0643 13.56 80.8962 12.5333C82.7414 11.5067 84.8407 11 87.2341 11C89.6276 11 91.5798 11.4933 93.3716 12.4933C95.1633 13.4933 96.5673 14.8933 97.5568 16.6933C98.5596 18.4933 99.0543 20.5733 99.0543 22.92C99.0543 23.8267 99.0009 24.6533 98.8805 25.3867L98.8671 25.36ZM93.7861 21.3067C93.7593 19.4533 93.0908 17.9733 91.7937 16.8667C90.4967 15.7467 88.8922 15.2 86.9801 15.2C85.2418 15.2 83.7576 15.7467 82.5275 16.8533C81.2973 17.96 80.5619 19.44 80.3212 21.32H93.7727L93.7861 21.3067Z" fill="#1E4635"/>
<path d="M110.848 12C112.065 11.3067 113.522 10.96 115.193 10.96V16.1467H113.91C111.944 16.1467 110.447 16.6533 109.43 17.64C108.414 18.64 107.906 20.3733 107.906 22.8267V35.5867H102.879V11.36H107.906V14.88C108.642 13.6533 109.618 12.6933 110.834 12H110.848Z" fill="#1E4635"/>
<path d="M140.826 25.36H122.253C122.401 27.2933 123.123 28.8533 124.42 30.0267C125.717 31.2 127.308 31.7867 129.18 31.7867C131.881 31.7867 133.793 30.6533 134.916 28.4H140.345C139.609 30.6267 138.286 32.4533 136.347 33.88C134.421 35.3067 132.028 36.0133 129.18 36.0133C126.853 36.0133 124.781 35.4933 122.935 34.4533C121.09 33.4133 119.659 31.9467 118.616 30.0533C117.574 28.16 117.052 25.9733 117.052 23.48C117.052 20.9867 117.56 18.8 118.576 16.9067C119.593 15.0133 121.023 13.56 122.855 12.5333C124.7 11.5067 126.8 11 129.193 11C131.587 11 133.539 11.4933 135.331 12.4933C137.122 13.4933 138.526 14.8933 139.516 16.6933C140.519 18.4933 141.013 20.5733 141.013 22.92C141.013 23.8267 140.96 24.6533 140.84 25.3867L140.826 25.36ZM135.745 21.3067C135.718 19.4533 135.05 17.9733 133.753 16.8667C132.456 15.7467 130.851 15.2 128.939 15.2C127.201 15.2 125.717 15.7467 124.486 16.8533C123.256 17.96 122.521 19.44 122.28 21.32H135.732L135.745 21.3067Z" fill="#1E4635"/>
<path d="M17.864 0.266666C16.7408 -0.0400009 15.7246 0.666666 15.6043 1.82667L15.2299 5.58667C15.1764 6.08 15.3235 6.54667 15.5775 6.93333C18.0111 8.42667 19.736 12.2667 19.736 16.7733C19.736 22.5733 16.8745 27.28 13.3312 27.2933H11.0447H13.3178C9.77439 27.2933 6.89957 22.5867 6.89957 16.7733C6.89957 12.1467 8.73144 8.21333 11.2586 6.81333C11.4859 6.37333 11.6063 5.88 11.5528 5.36L11.1784 1.44C11.0982 0.613332 10.4028 -0.0133343 9.57383 -0.0133343H2.59403C1.1633 -9.42498e-07 0 1.16 0 2.58667V36H11.4859C22.0893 36 30.1923 30.8267 30.1923 17.9067C30.1789 7.66667 25.6327 2.37333 17.864 0.266666Z" fill="#1E4635"/>
</g>
<defs>
<clipPath id="clip0_597_222">
<rect width="141" height="36" fill="white"/>
</clipPath>
</defs>
</svg>
