<svg width="653" height="167" viewBox="0 0 653 167" fill="none" xmlns="http://www.w3.org/2000/svg">
<g clip-path="url(#clip0_702_184)">
<path d="M263.553 117.642H177.539C178.22 126.611 181.564 133.847 187.571 139.29C193.578 144.733 200.947 147.455 209.616 147.455C222.125 147.455 230.981 142.197 236.182 131.744H261.324C257.918 142.074 251.787 150.547 242.808 157.166C233.891 163.784 222.806 167.062 209.616 167.062C198.841 167.062 189.243 164.65 180.697 159.825C172.152 155.001 165.526 148.197 160.696 139.414C155.865 130.631 153.45 120.487 153.45 108.921C153.45 97.3549 155.803 87.2112 160.51 78.4282C165.216 69.6452 171.842 62.9034 180.326 58.1408C188.871 53.3782 198.594 51.0278 209.678 51.0278C220.763 51.0278 229.804 53.3163 238.102 57.9552C246.4 62.5941 252.902 69.0886 257.484 77.4386C262.129 85.7886 264.42 95.4375 264.42 106.323C264.42 110.529 264.172 114.364 263.615 117.766L263.553 117.642ZM240.022 98.8393C239.898 90.2419 236.801 83.3763 230.795 78.2426C224.788 73.0471 217.357 70.5112 208.502 70.5112C200.451 70.5112 193.578 73.0471 187.881 78.1808C182.184 83.3145 178.778 90.1801 177.663 98.9012H239.96L240.022 98.8393Z" fill="#FF5D17"/>
<path d="M318.976 55.6667C324.611 52.4504 331.361 50.8423 339.102 50.8423V74.9027H333.157C324.054 74.9027 317.118 77.253 312.412 81.8301C307.706 86.4689 305.353 94.5097 305.353 105.89V165.083H282.069V52.6978H305.353V69.0267C308.758 63.3364 313.279 58.883 318.914 55.6667H318.976Z" fill="#FF5D17"/>
<path d="M457.874 117.642H371.86C372.541 126.611 375.885 133.847 381.892 139.29C387.899 144.733 395.268 147.455 403.937 147.455C416.446 147.455 425.301 142.197 430.503 131.744H455.645C452.239 142.074 446.108 150.547 437.129 157.166C428.212 163.784 417.127 167.062 403.937 167.062C393.162 167.062 383.564 164.65 375.018 159.825C366.473 155.001 359.847 148.197 355.016 139.414C350.186 130.631 347.771 120.487 347.771 108.921C347.771 97.3549 350.124 87.2112 354.831 78.4282C359.537 69.6452 366.163 62.9034 374.647 58.1408C383.192 53.3782 392.915 51.0278 403.999 51.0278C415.084 51.0278 424.125 53.3163 432.423 57.9552C440.721 62.5941 447.223 69.0886 451.805 77.4386C456.45 85.7886 458.741 95.4375 458.741 106.323C458.741 110.529 458.493 114.364 457.936 117.766L457.874 117.642ZM434.343 98.8393C434.219 90.2419 431.122 83.3763 425.116 78.2426C419.109 73.0471 411.678 70.5112 402.823 70.5112C394.772 70.5112 387.899 73.0471 382.202 78.1808C376.504 83.3145 373.099 90.1801 371.984 98.9012H434.281L434.343 98.8393Z" fill="#FF5D17"/>
<path d="M513.359 55.6667C518.994 52.4504 525.744 50.8423 533.485 50.8423V74.9027H527.54C518.437 74.9027 511.501 77.253 506.795 81.8301C502.088 86.4689 499.735 94.5097 499.735 105.89V165.083H476.452V52.6978H499.735V69.0267C503.141 63.3364 507.662 58.883 513.297 55.6667H513.359Z" fill="#FF5D17"/>
<path d="M652.195 117.642H566.181C566.862 126.611 570.206 133.847 576.213 139.29C582.22 144.733 589.589 147.455 598.258 147.455C610.767 147.455 619.622 142.197 624.824 131.744H649.966C646.56 142.074 640.429 150.547 631.45 157.166C622.533 163.784 611.448 167.062 598.258 167.062C587.483 167.062 577.885 164.65 569.339 159.825C560.794 155.001 554.168 148.197 549.337 139.414C544.507 130.631 542.092 120.487 542.092 108.921C542.092 97.3549 544.445 87.2112 549.152 78.4282C553.858 69.6452 560.484 62.9034 568.968 58.1408C577.513 53.3782 587.236 51.0278 598.32 51.0278C609.405 51.0278 618.446 53.3163 626.744 57.9552C635.042 62.5941 641.544 69.0886 646.126 77.4386C650.771 85.7886 653.062 95.4375 653.062 106.323C653.062 110.529 652.814 114.364 652.257 117.766L652.195 117.642ZM628.663 98.8393C628.54 90.2419 625.443 83.3763 619.437 78.2426C613.43 73.0471 605.999 70.5112 597.144 70.5112C589.093 70.5112 582.22 73.0471 576.522 78.1808C570.825 83.3145 567.419 90.1801 566.305 98.9012H628.602L628.663 98.8393Z" fill="#FF5D17"/>
<path d="M82.7319 1.23688C77.5302 -0.185715 72.8239 3.09243 72.2666 8.47354L70.5327 25.9158C70.285 28.2043 70.9661 30.3691 72.1427 32.1628C83.4131 39.0902 91.4014 56.9035 91.4014 77.8095C91.4014 104.715 78.1495 126.549 61.7393 126.611H51.1501H61.6774C45.2672 126.611 31.9533 104.777 31.9533 77.8095C31.9533 56.3469 40.4371 38.1006 52.1409 31.6061C53.1937 29.565 53.751 27.2765 53.5033 24.8643L51.7694 6.67984C51.3978 2.84503 48.1777 -0.0620117 44.3384 -0.0620117H12.0135C5.38748 -0.000159866 0 5.38095 0 11.9991V167H53.1937C102.3 167 139.827 143.001 139.827 83.0669C139.765 35.5647 118.71 11.0095 82.7319 1.23688Z" fill="#FF5D17"/>
</g>
<defs>
<clipPath id="clip0_702_184">
<rect width="653" height="167" fill="white"/>
</clipPath>
</defs>
</svg>
