<svg width="147" height="40" viewBox="0 0 147 40" fill="none" xmlns="http://www.w3.org/2000/svg">
<g clip-path="url(#clip0_239_2395)">
<path d="M28.1377 11.7308V28.2764C28.1377 28.4851 28.4152 28.5426 28.5006 28.3555C29.6535 25.815 30.301 22.9867 30.301 20.0072C30.301 17.0277 29.6535 14.1994 28.5006 11.6589C28.4152 11.4718 28.1377 11.5293 28.1377 11.738V11.7308Z" fill="#1E4635"/>
<path d="M21.3345 6.88017V33.127C21.3345 33.5948 21.9038 33.8251 22.2169 33.4797C25.4192 29.9244 27.3762 25.1961 27.3762 20.0072C27.3762 14.8183 25.4192 10.09 22.2169 6.53473C21.9038 6.18928 21.3345 6.41958 21.3345 6.88737V6.88017Z" fill="#1E4635"/>
<path d="M10.9946 2.77078V37.2292C10.9946 37.769 11.5568 38.1288 12.0407 37.8841C18.4951 34.5808 22.9214 27.8158 22.9214 20C22.9214 12.1842 18.4951 5.41922 12.0407 2.11587C11.5639 1.87118 10.9946 2.23102 10.9946 2.77078Z" fill="#1E4635"/>
<path d="M0 0.935316V39.0641C0 39.6039 0.448323 40.0285 0.974924 39.9997C11.4216 39.4384 19.7191 30.7014 19.7191 19.9997C19.7191 9.29804 11.4216 0.561081 0.974924 -0.000272097C0.448323 -0.0290594 0 0.40275 0 0.935316Z" fill="#1E4635"/>
<path d="M50.1197 12.6376C52.1407 13.6812 53.6992 15.1709 54.8022 17.1141C55.9052 19.0572 56.4532 21.3314 56.4532 23.9223C56.4532 26.5131 55.9052 28.7657 54.8022 30.6729C53.6992 32.5801 52.1407 34.041 50.1197 35.0558C48.0987 36.0705 45.7432 36.5815 43.0604 36.5815H34.8198V11.0759H43.0604C45.7432 11.0759 48.0987 11.5941 50.1197 12.6376ZM49.8493 30.7521C51.422 29.14 52.2048 26.8586 52.2048 23.9223C52.2048 20.986 51.4149 18.647 49.8493 16.9845C48.2766 15.3221 46.0137 14.4872 43.0604 14.4872H38.9615V33.1702H43.0604C46.0137 33.1702 48.2766 32.3642 49.8493 30.7449V30.7521Z" fill="#1E4635"/>
<path d="M77.8304 28.0317H62.5518C62.6728 29.6438 63.2635 30.9464 64.3309 31.9252C65.3983 32.9039 66.7006 33.3933 68.2519 33.3933C70.4793 33.3933 72.052 32.4505 72.97 30.565H77.4319C76.827 32.4217 75.7311 33.9475 74.1442 35.1349C72.5573 36.3224 70.5932 36.9126 68.2448 36.9126C66.3305 36.9126 64.6227 36.4807 63.1069 35.6099C61.5983 34.7391 60.4098 33.5157 59.5488 31.9395C58.6877 30.3634 58.2607 28.5354 58.2607 26.4556C58.2607 24.3757 58.6806 22.5477 59.5132 20.9716C60.3458 19.3955 61.52 18.1792 63.0357 17.3228C64.5444 16.4664 66.2807 16.0345 68.2448 16.0345C70.2089 16.0345 71.81 16.452 73.2902 17.2796C74.7633 18.1144 75.9161 19.2803 76.7345 20.7845C77.56 22.2886 77.9656 24.023 77.9656 25.9806C77.9656 26.7362 77.9158 27.4271 77.8233 28.0389L77.8304 28.0317ZM73.6531 24.6564C73.6318 23.1162 73.0838 21.8784 72.0235 20.95C70.9561 20.0216 69.6396 19.5538 68.0669 19.5538C66.6365 19.5538 65.4197 20.0144 64.402 20.9284C63.3844 21.8424 62.7795 23.0874 62.5874 24.6564H73.6531Z" fill="#1E4635"/>
<path d="M87.6793 16.8982C88.6827 16.3224 89.8782 16.0345 91.2516 16.0345V20.367H90.1984C88.5759 20.367 87.3519 20.7845 86.5122 21.6121C85.6796 22.4469 85.2598 23.8863 85.2598 25.9446V36.5887H81.1252V16.3656H85.2598V19.3019C85.8647 18.2728 86.6688 17.4739 87.6722 16.8982H87.6793Z" fill="#1E4635"/>
<path d="M112.344 28.0317H97.0655C97.1865 29.6438 97.7771 30.9464 98.8446 31.9252C99.912 32.9039 101.214 33.3933 102.766 33.3933C104.993 33.3933 106.566 32.4505 107.484 30.565H111.946C111.341 32.4217 110.245 33.9475 108.658 35.1349C107.071 36.3224 105.107 36.9126 102.758 36.9126C100.844 36.9126 99.1363 36.4807 97.6206 35.6099C96.1119 34.7391 94.9235 33.5157 94.0625 31.9395C93.2014 30.3634 92.7744 28.5354 92.7744 26.4556C92.7744 24.3757 93.1943 22.5477 94.0269 20.9716C94.8595 19.3955 96.0337 18.1792 97.5494 17.3228C99.0581 16.4664 100.794 16.0345 102.758 16.0345C104.723 16.0345 106.324 16.452 107.804 17.2796C109.277 18.1144 110.43 19.2803 111.248 20.7845C112.074 22.2886 112.479 24.023 112.479 25.9806C112.479 26.7362 112.429 27.4271 112.337 28.0389L112.344 28.0317ZM108.167 24.6564C108.145 23.1162 107.598 21.8784 106.537 20.95C105.47 20.0216 104.153 19.5538 102.581 19.5538C101.15 19.5538 99.9333 20.0144 98.9157 20.9284C97.8981 21.8424 97.2932 23.0874 97.1011 24.6564H108.167Z" fill="#1E4635"/>
<path d="M122.193 16.8982C123.196 16.3224 124.392 16.0345 125.765 16.0345V20.367H124.712C123.09 20.367 121.866 20.7845 121.026 21.6121C120.193 22.4469 119.773 23.8863 119.773 25.9446V36.5887H115.639V16.3656H119.773V19.3019C120.378 18.2728 121.182 17.4739 122.186 16.8982H122.193Z" fill="#1E4635"/>
<path d="M146.858 28.0317H131.579C131.7 29.6438 132.291 30.9464 133.358 31.9252C134.426 32.9039 135.728 33.3933 137.279 33.3933C139.507 33.3933 141.079 32.4505 141.997 30.565H146.459C145.854 32.4217 144.758 33.9475 143.172 35.1349C141.585 36.3224 139.621 36.9126 137.272 36.9126C135.358 36.9126 133.65 36.4807 132.134 35.6099C130.626 34.7391 129.437 33.5157 128.576 31.9395C127.715 30.3634 127.288 28.5354 127.288 26.4556C127.288 24.3757 127.708 22.5477 128.541 20.9716C129.373 19.3955 130.547 18.1792 132.063 17.3228C133.572 16.4664 135.308 16.0345 137.272 16.0345C139.236 16.0345 140.837 16.452 142.318 17.2796C143.791 18.1144 144.943 19.2803 145.762 20.7845C146.587 22.2886 146.993 24.023 146.993 25.9806C146.993 26.7362 146.943 27.4271 146.851 28.0389L146.858 28.0317ZM142.68 24.6564C142.659 23.1162 142.111 21.8784 141.051 20.95C139.983 20.0216 138.667 19.5538 137.094 19.5538C135.664 19.5538 134.447 20.0144 133.429 20.9284C132.412 21.8424 131.807 23.0874 131.615 24.6564H142.68Z" fill="#1E4635"/>
<path d="M38.2782 1.79201C38.6767 1.99352 38.9755 2.28859 39.189 2.66283C39.4025 3.04426 39.5021 3.49046 39.5021 4.00144C39.5021 4.51241 39.3954 4.95862 39.189 5.33285C38.9755 5.70709 38.6767 5.99496 38.2782 6.19647C37.8796 6.39798 37.4171 6.49874 36.8763 6.49874H35.332V1.48255H36.8763C37.4171 1.48255 37.8868 1.5833 38.2782 1.79201ZM38.3351 5.448C38.6695 5.10255 38.8403 4.62037 38.8403 4.00144C38.8403 3.38251 38.6695 2.89313 38.3351 2.54048C37.9935 2.18784 37.5096 2.01511 36.8763 2.01511H35.9796V5.95898H36.8763C37.5167 5.95898 38.0077 5.78625 38.3422 5.448H38.3351Z" fill="#1E4635"/>
<path d="M43.715 4.7715H40.5981C40.6194 5.16013 40.7546 5.4624 40.9895 5.6855C41.2314 5.9014 41.5232 6.00936 41.8577 6.00936C42.1352 6.00936 42.37 5.94458 42.5622 5.81504C42.7472 5.6855 42.8824 5.50558 42.9536 5.28967H43.651C43.5442 5.6711 43.3378 5.98057 43.0247 6.21806C42.7116 6.45556 42.3202 6.57071 41.8577 6.57071C41.4876 6.57071 41.1603 6.48435 40.8685 6.31882C40.5767 6.15329 40.349 5.9086 40.1853 5.59914C40.0217 5.28967 39.9363 4.92983 39.9363 4.51961C39.9363 4.10939 40.0146 3.75675 40.1782 3.44728C40.3419 3.13782 40.5696 2.90752 40.8614 2.74199C41.1532 2.57647 41.4876 2.4973 41.8719 2.4973C42.2562 2.4973 42.5693 2.57647 42.8539 2.74199C43.1386 2.90752 43.3592 3.13062 43.5157 3.4185C43.6723 3.70637 43.7435 4.02303 43.7435 4.38287C43.7435 4.50522 43.7435 4.64196 43.7221 4.7787L43.715 4.7715ZM42.9037 3.59842C42.797 3.4185 42.6476 3.28176 42.4625 3.1882C42.2775 3.09464 42.0712 3.05146 41.8363 3.05146C41.509 3.05146 41.2314 3.15941 41.0037 3.36812C40.776 3.57683 40.6408 3.8719 40.6123 4.24613H43.0745C43.0745 3.99424 43.0176 3.77834 42.9109 3.59842H42.9037Z" fill="#1E4635"/>
<path d="M49.9132 2.67722C50.148 2.80676 50.3402 2.99388 50.4754 3.24577C50.6106 3.49766 50.6818 3.80712 50.6818 4.17416V6.49874H50.0413V4.26772C50.0413 3.8719 49.9488 3.57682 49.7566 3.36812C49.5645 3.15941 49.3012 3.05146 48.9739 3.05146C48.6465 3.05146 48.369 3.15941 48.1697 3.38251C47.9705 3.60561 47.8708 3.91508 47.8708 4.3253V6.49874H47.2304V4.26772C47.2304 3.8719 47.1308 3.57682 46.9386 3.36812C46.7465 3.15941 46.4903 3.05146 46.1629 3.05146C45.8356 3.05146 45.5581 3.15941 45.3588 3.38251C45.1596 3.59842 45.0599 3.91508 45.0599 4.3253V6.49874H44.4124V2.55487H45.0599V3.12342C45.188 2.91472 45.3588 2.75639 45.5794 2.64843C45.7929 2.54048 46.0349 2.48291 46.291 2.48291C46.6184 2.48291 46.9101 2.55487 47.1592 2.70601C47.4083 2.85714 47.6004 3.07305 47.7214 3.36092C47.8281 3.08024 48.0132 2.86434 48.2622 2.7132C48.5113 2.56207 48.796 2.48291 49.102 2.48291C49.4079 2.48291 49.6784 2.54768 49.9132 2.67722Z" fill="#1E4635"/>
<path d="M51.5642 3.45448C51.7279 3.15221 51.9485 2.91472 52.2331 2.74199C52.5178 2.57647 52.8309 2.4901 53.1796 2.4901C53.5283 2.4901 53.8201 2.56207 54.0691 2.71321C54.3182 2.86434 54.5103 3.05146 54.6313 3.27456V2.55488H55.286V6.49874H54.6313V5.76466C54.5032 5.99496 54.3111 6.18208 54.0549 6.33321C53.7987 6.48435 53.5069 6.55631 53.1654 6.55631C52.8238 6.55631 52.5036 6.46995 52.226 6.29723C51.9485 6.12451 51.7279 5.87981 51.5642 5.57035C51.4005 5.26089 51.3223 4.90104 51.3223 4.50522C51.3223 4.10939 51.4005 3.74955 51.5642 3.44009V3.45448ZM54.4463 3.74235C54.3253 3.51925 54.1688 3.35372 53.9624 3.23138C53.7631 3.11623 53.5425 3.05865 53.3006 3.05865C53.0586 3.05865 52.838 3.11623 52.6388 3.23138C52.4395 3.34653 52.283 3.51205 52.162 3.73516C52.041 3.95826 51.9841 4.21734 51.9841 4.51241C51.9841 4.80748 52.041 5.07377 52.162 5.29687C52.283 5.51997 52.4395 5.6927 52.6388 5.80784C52.838 5.92299 53.0586 5.98777 53.3006 5.98777C53.5425 5.98777 53.7631 5.93019 53.9624 5.80784C54.1616 5.6927 54.3253 5.51997 54.4463 5.29687C54.5673 5.07377 54.6242 4.81468 54.6242 4.51961C54.6242 4.22454 54.5673 3.96546 54.4463 3.74235Z" fill="#1E4635"/>
<path d="M59.2496 2.92191C59.5414 3.20979 59.6908 3.6272 59.6908 4.18136V6.50594H59.0504V4.27492C59.0504 3.87909 58.9508 3.58402 58.7586 3.37531C58.5665 3.16661 58.2961 3.05865 57.9616 3.05865C57.6271 3.05865 57.3496 3.16661 57.1503 3.38251C56.9511 3.59842 56.8444 3.91508 56.8444 4.3253V6.50594H56.1968V2.55487H56.8444V3.11623C56.9724 2.91472 57.1504 2.75639 57.371 2.64843C57.5916 2.54048 57.8335 2.48291 58.1039 2.48291C58.5807 2.48291 58.965 2.62684 59.2568 2.91472L59.2496 2.92191Z" fill="#1E4635"/>
<path d="M60.5733 3.45448C60.737 3.15221 60.9576 2.91472 61.2422 2.74199C61.5269 2.57647 61.84 2.4901 62.1887 2.4901C62.4947 2.4901 62.7722 2.56207 63.0355 2.69881C63.2988 2.84275 63.4981 3.02987 63.6333 3.25297V1.17308H64.288V6.49874H63.6333V5.75747C63.5052 5.99496 63.313 6.18208 63.064 6.33321C62.8149 6.48435 62.516 6.55632 62.1816 6.55632C61.8471 6.55632 61.5198 6.46995 61.2351 6.29723C60.9505 6.12451 60.7298 5.87981 60.5662 5.57035C60.4025 5.26089 60.3242 4.90104 60.3242 4.50522C60.3242 4.10939 60.4025 3.74955 60.5662 3.44009L60.5733 3.45448ZM63.4554 3.74235C63.3344 3.51925 63.1778 3.35372 62.9715 3.23138C62.7722 3.11623 62.5516 3.05865 62.3096 3.05865C62.0677 3.05865 61.8471 3.11623 61.6478 3.23138C61.4486 3.34653 61.292 3.51206 61.1711 3.73516C61.0501 3.95826 60.9931 4.21734 60.9931 4.51241C60.9931 4.80749 61.0501 5.07377 61.1711 5.29687C61.292 5.51997 61.4486 5.6927 61.6478 5.80784C61.8471 5.92299 62.0677 5.98777 62.3096 5.98777C62.5516 5.98777 62.7722 5.93019 62.9715 5.80784C63.1707 5.6927 63.3344 5.51997 63.4554 5.29687C63.5763 5.07377 63.6333 4.81468 63.6333 4.51961C63.6333 4.22454 63.5763 3.96546 63.4554 3.74235Z" fill="#1E4635"/>
<path d="M67.9102 3.58402V4.13818H65.0708V3.58402H67.9102Z" fill="#1E4635"/>
<path d="M71.5609 6.49874L70.3796 4.44764H69.5968V6.49874H68.9492V1.48255H70.5504C70.9275 1.48255 71.2406 1.54732 71.5039 1.67686C71.7601 1.80641 71.9523 1.97913 72.0804 2.20223C72.2085 2.42533 72.2725 2.67722 72.2725 2.9579C72.2725 3.30335 72.1729 3.60561 71.9736 3.8719C71.7744 4.13818 71.4826 4.3109 71.0841 4.39727L72.3294 6.49874H71.5538H71.5609ZM69.5968 3.92227H70.5504C70.8991 3.92227 71.1624 3.83591 71.3403 3.66319C71.5182 3.49046 71.6036 3.25297 71.6036 2.9579C71.6036 2.66283 71.5182 2.43253 71.3403 2.267C71.1624 2.10148 70.8991 2.02231 70.5433 2.02231H69.5897V3.92227H69.5968Z" fill="#1E4635"/>
<path d="M76.6347 4.7715H73.5178C73.5391 5.16013 73.6743 5.4624 73.9092 5.6855C74.1511 5.9014 74.4429 6.00936 74.7773 6.00936C75.0549 6.00936 75.2897 5.94458 75.4818 5.81504C75.6669 5.6855 75.8021 5.50558 75.8732 5.28967H76.5706C76.4639 5.6711 76.2575 5.98057 75.9444 6.21806C75.6313 6.45556 75.2399 6.57071 74.7773 6.57071C74.4073 6.57071 74.08 6.48435 73.7882 6.31882C73.4964 6.15329 73.2687 5.9086 73.105 5.59914C72.9414 5.28967 72.856 4.92983 72.856 4.51961C72.856 4.10939 72.9342 3.75675 73.0979 3.44728C73.2616 3.13782 73.4893 2.90752 73.7811 2.74199C74.0728 2.57647 74.4073 2.4973 74.7916 2.4973C75.1758 2.4973 75.489 2.57647 75.7736 2.74199C76.0583 2.90752 76.2789 3.13062 76.4354 3.4185C76.592 3.70637 76.6631 4.02303 76.6631 4.38287C76.6631 4.50522 76.6631 4.64196 76.6418 4.7787L76.6347 4.7715ZM75.8234 3.59842C75.7167 3.4185 75.5672 3.28176 75.3822 3.1882C75.1972 3.09464 74.9908 3.05146 74.756 3.05146C74.4286 3.05146 74.1511 3.15941 73.9234 3.36812C73.6957 3.57683 73.5605 3.8719 73.532 4.24613H75.9942C75.9942 3.99424 75.9373 3.77834 75.8305 3.59842H75.8234Z" fill="#1E4635"/>
<path d="M77.9086 6.41238C77.6737 6.31162 77.4816 6.16769 77.3464 5.98057C77.2112 5.79345 77.1329 5.58474 77.1187 5.34725H77.7876C77.8089 5.54156 77.9014 5.70709 78.058 5.82943C78.2217 5.95178 78.4352 6.01655 78.7056 6.01655C78.9546 6.01655 79.1468 5.95898 79.2891 5.85102C79.4314 5.74307 79.5026 5.59914 79.5026 5.43361C79.5026 5.26808 79.4243 5.13134 79.2749 5.05218C79.1254 4.96581 78.8906 4.88665 78.5704 4.80029C78.2786 4.72112 78.0438 4.64915 77.8587 4.56999C77.6737 4.49082 77.5172 4.37567 77.3891 4.21734C77.261 4.05901 77.1898 3.8575 77.1898 3.60561C77.1898 3.4041 77.2467 3.21698 77.3677 3.05146C77.4887 2.88593 77.6524 2.74919 77.873 2.64843C78.0936 2.54768 78.3426 2.5045 78.6202 2.5045C79.0543 2.5045 79.403 2.61245 79.6663 2.83555C79.9296 3.05865 80.0719 3.36092 80.0932 3.74235H79.4457C79.4314 3.53364 79.3531 3.36812 79.2037 3.24577C79.0543 3.12343 78.855 3.05865 78.5988 3.05865C78.364 3.05865 78.179 3.10903 78.0438 3.20979C77.9086 3.31054 77.8374 3.44009 77.8374 3.60561C77.8374 3.73516 77.8801 3.84311 77.9584 3.92227C78.0438 4.00864 78.1434 4.07341 78.2715 4.12378C78.3996 4.17416 78.5704 4.23174 78.791 4.28931C79.0685 4.36848 79.2962 4.44045 79.4741 4.51241C79.652 4.58438 79.8015 4.69953 79.9224 4.85066C80.0434 5.0018 80.1146 5.19611 80.1217 5.43361C80.1217 5.64951 80.0648 5.84383 79.9438 6.01655C79.8228 6.18928 79.6591 6.32602 79.4385 6.41957C79.2251 6.52033 78.976 6.57071 78.6985 6.57071C78.3996 6.57071 78.1292 6.52033 77.8943 6.41957L77.9086 6.41238Z" fill="#1E4635"/>
<path d="M82.0929 2.7204C82.3491 2.56927 82.6408 2.4973 82.9824 2.4973C83.324 2.4973 83.6442 2.58366 83.9218 2.74919C84.2064 2.91472 84.427 3.15221 84.5907 3.46168C84.7544 3.77114 84.8326 4.12379 84.8326 4.52681C84.8326 4.92983 84.7544 5.28248 84.5907 5.59194C84.427 5.9014 84.2064 6.1461 83.9218 6.31882C83.6371 6.49154 83.324 6.57791 82.9824 6.57791C82.6408 6.57791 82.3562 6.50594 82.1 6.3548C81.8438 6.20367 81.6517 6.01655 81.5165 5.79345V8.39151H80.8689V2.55488H81.5165V3.28176C81.6446 3.05865 81.8367 2.87154 82.0929 2.7204ZM83.9858 3.73516C83.8648 3.51205 83.7083 3.34653 83.5019 3.23138C83.2955 3.11623 83.082 3.05865 82.8401 3.05865C82.5981 3.05865 82.3847 3.11623 82.1854 3.23138C81.9861 3.34653 81.8225 3.51925 81.7015 3.74235C81.5805 3.96545 81.5236 4.22454 81.5236 4.51961C81.5236 4.81468 81.5805 5.07377 81.7015 5.29687C81.8225 5.51997 81.9861 5.69269 82.1854 5.80784C82.3847 5.92299 82.6053 5.98776 82.8401 5.98776C83.0749 5.98776 83.3026 5.93019 83.5019 5.80784C83.7012 5.69269 83.8648 5.51997 83.9858 5.29687C84.1068 5.07377 84.1637 4.81468 84.1637 4.51241C84.1637 4.21015 84.1068 3.95826 83.9858 3.73516Z" fill="#1E4635"/>
<path d="M86.2131 6.31162C85.9142 6.1461 85.6865 5.9014 85.5157 5.59194C85.3449 5.28248 85.2595 4.92263 85.2595 4.51241C85.2595 4.1022 85.3449 3.74955 85.5228 3.44728C85.6936 3.13782 85.9356 2.90032 86.2344 2.7348C86.5333 2.56927 86.8678 2.4901 87.2378 2.4901C87.6079 2.4901 87.9423 2.56927 88.2412 2.7348C88.5401 2.90032 88.7749 3.13782 88.9528 3.44009C89.1236 3.74955 89.209 4.1022 89.209 4.51241C89.209 4.92263 89.1236 5.27528 88.9386 5.59194C88.7607 5.9014 88.5188 6.1389 88.2199 6.31162C87.921 6.48435 87.5794 6.56351 87.2094 6.56351C86.8393 6.56351 86.512 6.47715 86.2131 6.31162ZM87.8569 5.82224C88.0633 5.71429 88.227 5.54876 88.3551 5.32566C88.4832 5.10256 88.5401 4.83627 88.5401 4.51961C88.5401 4.20295 88.4761 3.93667 88.3551 3.71357C88.2341 3.49046 88.0704 3.33213 87.8712 3.21698C87.6719 3.10903 87.4584 3.05865 87.2236 3.05865C86.9888 3.05865 86.7682 3.10903 86.5689 3.21698C86.3697 3.32494 86.2131 3.49046 86.0921 3.71357C85.9711 3.93667 85.9142 4.20295 85.9142 4.51961C85.9142 4.83627 85.9711 5.10975 86.0921 5.33285C86.206 5.55596 86.3625 5.72148 86.5547 5.82944C86.7468 5.93739 86.9603 5.99496 87.1951 5.99496C87.43 5.99496 87.6435 5.93739 87.8498 5.82944L87.8569 5.82224Z" fill="#1E4635"/>
<path d="M92.9308 2.92191C93.2226 3.20979 93.372 3.6272 93.372 4.18136V6.50594H92.7315V4.27492C92.7315 3.87909 92.6319 3.58402 92.4398 3.37531C92.2476 3.16661 91.9772 3.05865 91.6428 3.05865C91.3083 3.05865 91.0308 3.16661 90.8315 3.38251C90.6322 3.59842 90.5255 3.91508 90.5255 4.3253V6.50594H89.8779V2.55487H90.5255V3.11623C90.6536 2.91472 90.8315 2.75639 91.0521 2.64843C91.2727 2.54048 91.5147 2.48291 91.7851 2.48291C92.2619 2.48291 92.6461 2.62684 92.9379 2.91472L92.9308 2.92191Z" fill="#1E4635"/>
<path d="M94.8309 6.41238C94.5961 6.31162 94.4039 6.16769 94.2687 5.98057C94.1335 5.79345 94.0552 5.58474 94.041 5.34725H94.7099C94.7313 5.54156 94.8238 5.70709 94.9804 5.82943C95.144 5.95178 95.3575 6.01655 95.6279 6.01655C95.877 6.01655 96.0691 5.95898 96.2115 5.85102C96.3538 5.74307 96.425 5.59914 96.425 5.43361C96.425 5.26808 96.3467 5.13134 96.1972 5.05218C96.0478 4.96581 95.813 4.88665 95.4927 4.80029C95.201 4.72112 94.9661 4.64915 94.7811 4.56999C94.5961 4.49082 94.4395 4.37567 94.3114 4.21734C94.1833 4.05901 94.1122 3.8575 94.1122 3.60561C94.1122 3.4041 94.1691 3.21698 94.2901 3.05146C94.4111 2.88593 94.5747 2.74919 94.7953 2.64843C95.0159 2.54768 95.265 2.5045 95.5425 2.5045C95.9766 2.5045 96.3253 2.61245 96.5886 2.83555C96.8519 3.05865 96.9943 3.36092 97.0156 3.74235H96.368C96.3538 3.53364 96.2755 3.36812 96.1261 3.24577C95.9766 3.12343 95.7774 3.05865 95.5212 3.05865C95.2864 3.05865 95.1013 3.10903 94.9661 3.20979C94.8309 3.31054 94.7598 3.44009 94.7598 3.60561C94.7598 3.73516 94.8025 3.84311 94.8807 3.92227C94.9661 4.00864 95.0658 4.07341 95.1939 4.12378C95.3219 4.17416 95.4927 4.23174 95.7133 4.28931C95.9909 4.36848 96.2186 4.44045 96.3965 4.51241C96.5744 4.58438 96.7238 4.69953 96.8448 4.85066C96.9658 5.0018 97.0369 5.19611 97.0441 5.43361C97.0441 5.64951 96.9871 5.84383 96.8662 6.01655C96.7452 6.18928 96.5815 6.32602 96.3609 6.41957C96.1474 6.52033 95.8984 6.57071 95.6208 6.57071C95.3219 6.57071 95.0515 6.52033 94.8167 6.41957L94.8309 6.41238Z" fill="#1E4635"/>
<path d="M97.8127 1.78481C97.7273 1.69845 97.6846 1.5905 97.6846 1.46815C97.6846 1.34581 97.7273 1.23785 97.8127 1.15149C97.8981 1.06513 98.0048 1.02195 98.1258 1.02195C98.2467 1.02195 98.3464 1.06513 98.4247 1.15149C98.51 1.23785 98.5456 1.34581 98.5456 1.46815C98.5456 1.5905 98.5029 1.69845 98.4247 1.78481C98.3393 1.87118 98.2396 1.91436 98.1258 1.91436C98.0119 1.91436 97.8981 1.87118 97.8127 1.78481ZM98.4389 2.55488V6.49874H97.7913V2.55488H98.4389Z" fill="#1E4635"/>
<path d="M100.816 5.8942L102.025 2.55487H102.716L101.186 6.49874H100.431L98.9014 2.55487H99.5988L100.816 5.8942Z" fill="#1E4635"/>
<path d="M106.715 4.7715H103.598C103.619 5.16013 103.755 5.4624 103.989 5.6855C104.231 5.9014 104.523 6.00936 104.858 6.00936C105.135 6.00936 105.37 5.94458 105.562 5.81504C105.747 5.6855 105.882 5.50558 105.954 5.28967H106.651C106.544 5.6711 106.338 5.98057 106.025 6.21806C105.712 6.45556 105.32 6.57071 104.858 6.57071C104.488 6.57071 104.16 6.48435 103.869 6.31882C103.577 6.15329 103.349 5.9086 103.185 5.59914C103.022 5.28967 102.936 4.92983 102.936 4.51961C102.936 4.10939 103.015 3.75675 103.178 3.44728C103.342 3.13782 103.57 2.90752 103.861 2.74199C104.153 2.57647 104.488 2.4973 104.872 2.4973C105.256 2.4973 105.569 2.57647 105.854 2.74199C106.139 2.90752 106.359 3.13062 106.516 3.4185C106.672 3.70637 106.743 4.02303 106.743 4.38287C106.743 4.50522 106.743 4.64196 106.722 4.7787L106.715 4.7715ZM105.904 3.59842C105.797 3.4185 105.648 3.28176 105.463 3.1882C105.278 3.09464 105.071 3.05146 104.836 3.05146C104.509 3.05146 104.231 3.15941 104.004 3.36812C103.776 3.57683 103.641 3.8719 103.612 4.24613H106.075C106.075 3.99424 106.018 3.77834 105.911 3.59842H105.904Z" fill="#1E4635"/>
<path d="M111.746 6.49874L110.565 4.44764H109.782V6.49874H109.135V1.48255H110.736C111.113 1.48255 111.426 1.54732 111.689 1.67686C111.945 1.80641 112.138 1.97913 112.266 2.20223C112.394 2.42533 112.458 2.67722 112.458 2.9579C112.458 3.30335 112.358 3.60561 112.159 3.8719C111.96 4.13818 111.668 4.3109 111.269 4.39727L112.515 6.49874H111.739H111.746ZM109.782 3.92227H110.736C111.084 3.92227 111.348 3.83591 111.526 3.66319C111.703 3.49046 111.789 3.25297 111.789 2.9579C111.789 2.66283 111.703 2.43253 111.526 2.267C111.348 2.10148 111.084 2.02231 110.729 2.02231H109.775V3.92227H109.782Z" fill="#1E4635"/>
<path d="M116.82 4.7715H113.703C113.724 5.16013 113.86 5.4624 114.094 5.6855C114.336 5.9014 114.628 6.00936 114.963 6.00936C115.24 6.00936 115.475 5.94458 115.667 5.81504C115.852 5.6855 115.987 5.50558 116.059 5.28967H116.756C116.649 5.6711 116.443 5.98057 116.13 6.21806C115.817 6.45556 115.425 6.57071 114.963 6.57071C114.593 6.57071 114.265 6.48435 113.973 6.31882C113.682 6.15329 113.454 5.9086 113.29 5.59914C113.127 5.28967 113.041 4.92983 113.041 4.51961C113.041 4.10939 113.12 3.75675 113.283 3.44728C113.447 3.13782 113.675 2.90752 113.966 2.74199C114.258 2.57647 114.593 2.4973 114.977 2.4973C115.361 2.4973 115.674 2.57647 115.959 2.74199C116.244 2.90752 116.464 3.13062 116.621 3.4185C116.777 3.70637 116.848 4.02303 116.848 4.38287C116.848 4.50522 116.848 4.64196 116.827 4.7787L116.82 4.7715ZM116.009 3.59842C115.902 3.4185 115.753 3.28176 115.568 3.1882C115.382 3.09464 115.176 3.05146 114.941 3.05146C114.614 3.05146 114.336 3.15941 114.109 3.36812C113.881 3.57683 113.746 3.8719 113.717 4.24613H116.18C116.18 3.99424 116.123 3.77834 116.016 3.59842H116.009Z" fill="#1E4635"/>
<path d="M118.094 6.41238C117.859 6.31162 117.667 6.16769 117.532 5.98057C117.396 5.79345 117.318 5.58474 117.304 5.34725H117.973C117.994 5.54156 118.087 5.70709 118.243 5.82943C118.407 5.95178 118.62 6.01655 118.891 6.01655C119.14 6.01655 119.332 5.95898 119.474 5.85102C119.617 5.74307 119.688 5.59914 119.688 5.43361C119.688 5.26808 119.61 5.13134 119.46 5.05218C119.311 4.96581 119.076 4.88665 118.756 4.80029C118.464 4.72112 118.229 4.64915 118.044 4.56999C117.859 4.49082 117.702 4.37567 117.574 4.21734C117.446 4.05901 117.375 3.8575 117.375 3.60561C117.375 3.4041 117.432 3.21698 117.553 3.05146C117.674 2.88593 117.838 2.74919 118.058 2.64843C118.279 2.54768 118.528 2.5045 118.805 2.5045C119.24 2.5045 119.588 2.61245 119.852 2.83555C120.115 3.05865 120.257 3.36092 120.279 3.74235H119.631C119.617 3.53364 119.538 3.36812 119.389 3.24577C119.24 3.12343 119.04 3.05865 118.784 3.05865C118.549 3.05865 118.364 3.10903 118.229 3.20979C118.094 3.31054 118.023 3.44009 118.023 3.60561C118.023 3.73516 118.065 3.84311 118.144 3.92227C118.229 4.00864 118.329 4.07341 118.457 4.12378C118.585 4.17416 118.756 4.23174 118.976 4.28931C119.254 4.36848 119.482 4.44045 119.659 4.51241C119.837 4.58438 119.987 4.69953 120.108 4.85066C120.229 5.0018 120.3 5.19611 120.307 5.43361C120.307 5.64951 120.25 5.84383 120.129 6.01655C120.008 6.18928 119.844 6.32602 119.624 6.41957C119.41 6.52033 119.161 6.57071 118.884 6.57071C118.585 6.57071 118.314 6.52033 118.08 6.41957L118.094 6.41238Z" fill="#1E4635"/>
<path d="M121.844 3.09464V5.41922C121.844 5.61353 121.887 5.75027 121.965 5.82224C122.043 5.89421 122.186 5.94458 122.385 5.94458H122.862V6.49874H122.278C121.915 6.49874 121.645 6.41238 121.467 6.24685C121.289 6.08132 121.196 5.80065 121.196 5.41922V3.09464H120.691V2.55488H121.196V1.56171H121.844V2.55488H122.862V3.09464H121.844Z" fill="#1E4635"/>
<path d="M123.467 3.45448C123.63 3.15221 123.851 2.91472 124.135 2.74199C124.42 2.57647 124.733 2.4901 125.082 2.4901C125.431 2.4901 125.722 2.56207 125.971 2.71321C126.221 2.86434 126.413 3.05146 126.534 3.27456V2.55488H127.188V6.49874H126.534V5.76466C126.406 5.99496 126.213 6.18208 125.957 6.33321C125.701 6.48435 125.409 6.55631 125.068 6.55631C124.726 6.55631 124.406 6.46995 124.128 6.29723C123.851 6.12451 123.63 5.87981 123.467 5.57035C123.303 5.26089 123.225 4.90104 123.225 4.50522C123.225 4.10939 123.303 3.74955 123.467 3.44009V3.45448ZM126.349 3.74235C126.228 3.51925 126.071 3.35372 125.865 3.23138C125.665 3.11623 125.445 3.05865 125.203 3.05865C124.961 3.05865 124.74 3.11623 124.541 3.23138C124.342 3.34653 124.185 3.51205 124.064 3.73516C123.943 3.95826 123.886 4.21734 123.886 4.51241C123.886 4.80748 123.943 5.07377 124.064 5.29687C124.185 5.51997 124.342 5.6927 124.541 5.80784C124.74 5.92299 124.961 5.98777 125.203 5.98777C125.445 5.98777 125.665 5.93019 125.865 5.80784C126.064 5.6927 126.228 5.51997 126.349 5.29687C126.47 5.07377 126.527 4.81468 126.527 4.51961C126.527 4.22454 126.47 3.96546 126.349 3.74235Z" fill="#1E4635"/>
<path d="M131.558 2.55487V6.49874H130.91V5.9158C130.789 6.11731 130.611 6.27564 130.398 6.39079C130.177 6.50594 129.935 6.55631 129.665 6.55631C129.359 6.55631 129.088 6.49154 128.846 6.362C128.605 6.23246 128.412 6.04534 128.27 5.79345C128.128 5.54156 128.064 5.2321 128.064 4.86506V2.55487H128.704V4.7787C128.704 5.16732 128.804 5.46959 128.996 5.6783C129.188 5.88701 129.458 5.99496 129.793 5.99496C130.127 5.99496 130.412 5.88701 130.611 5.6711C130.811 5.4552 130.91 5.13854 130.91 4.72832V2.56207H131.558V2.55487Z" fill="#1E4635"/>
<path d="M133.614 2.67002C133.828 2.54768 134.084 2.48291 134.383 2.48291V3.15941H134.212C133.486 3.15941 133.123 3.55523 133.123 4.35408V6.49874H132.476V2.55487H133.123V3.19539C133.237 2.97229 133.401 2.79237 133.614 2.67002Z" fill="#1E4635"/>
<path d="M134.952 3.45448C135.116 3.15221 135.336 2.91472 135.621 2.74199C135.906 2.57647 136.219 2.4901 136.568 2.4901C136.916 2.4901 137.208 2.56207 137.457 2.71321C137.706 2.86434 137.898 3.05146 138.019 3.27456V2.55488H138.674V6.49874H138.019V5.76466C137.891 5.99496 137.699 6.18208 137.443 6.33321C137.187 6.48435 136.895 6.55631 136.553 6.55631C136.212 6.55631 135.892 6.46995 135.614 6.29723C135.336 6.12451 135.116 5.87981 134.952 5.57035C134.788 5.26089 134.71 4.90104 134.71 4.50522C134.71 4.10939 134.788 3.74955 134.952 3.44009V3.45448ZM137.834 3.74235C137.713 3.51925 137.557 3.35372 137.35 3.23138C137.151 3.11623 136.93 3.05865 136.689 3.05865C136.447 3.05865 136.226 3.11623 136.027 3.23138C135.827 3.34653 135.671 3.51205 135.55 3.73516C135.429 3.95826 135.372 4.21734 135.372 4.51241C135.372 4.80748 135.429 5.07377 135.55 5.29687C135.671 5.51997 135.827 5.6927 136.027 5.80784C136.226 5.92299 136.447 5.98777 136.689 5.98777C136.93 5.98777 137.151 5.93019 137.35 5.80784C137.55 5.6927 137.713 5.51997 137.834 5.29687C137.955 5.07377 138.012 4.81468 138.012 4.51961C138.012 4.22454 137.955 3.96546 137.834 3.74235Z" fill="#1E4635"/>
<path d="M142.638 2.92191C142.929 3.20979 143.079 3.6272 143.079 4.18136V6.50594H142.438V4.27492C142.438 3.87909 142.339 3.58402 142.147 3.37531C141.954 3.16661 141.684 3.05865 141.35 3.05865C141.015 3.05865 140.738 3.16661 140.538 3.38251C140.339 3.59842 140.232 3.91508 140.232 4.3253V6.50594H139.585V2.55487H140.232V3.11623C140.36 2.91472 140.538 2.75639 140.759 2.64843C140.98 2.54048 141.221 2.48291 141.492 2.48291C141.969 2.48291 142.353 2.62684 142.645 2.91472L142.638 2.92191Z" fill="#1E4635"/>
<path d="M144.751 3.09464V5.41922C144.751 5.61353 144.794 5.75027 144.872 5.82224C144.95 5.89421 145.093 5.94458 145.292 5.94458H145.769V6.49874H145.185C144.822 6.49874 144.552 6.41238 144.374 6.24685C144.196 6.08132 144.104 5.80065 144.104 5.41922V3.09464H143.598V2.55488H144.104V1.56171H144.751V2.55488H145.769V3.09464H144.751Z" fill="#1E4635"/>
</g>
<defs>
<clipPath id="clip0_239_2395">
<rect width="147" height="40" fill="white"/>
</clipPath>
</defs>
</svg>
