<svg width="271" height="113" viewBox="0 0 271 113" fill="none" xmlns="http://www.w3.org/2000/svg">
<g clip-path="url(#clip0_14_182)">
<path d="M64.419 68.4015L53.3352 67.1844L52.1175 78.2734L18.8663 74.6222L17.6486 85.7112L0.376406 83.8146L8.36221 11.089L25.6344 12.9856L24.4167 24.0746L29.3121 24.6122L30.5297 13.5231L58.8857 16.6368L57.668 27.7259L68.7518 28.943L64.419 68.4015ZM22.5192 41.3551L20.7638 57.3418L47.8266 60.3135L50.7997 33.2377L34.8207 31.4831L33.603 42.5721L22.5192 41.3551Z" fill="#FF7133"/>
<path d="M113.087 33.8113L109.434 67.0785L131.601 69.5126L129.704 86.793L68.0966 80.0281L69.9941 62.7477L92.1617 65.1818L93.9171 49.1952L71.7496 46.761L73.6471 29.4806L113.087 33.8113ZM115.522 11.6333L113.625 28.9137L96.3524 27.0171L98.25 9.73665L115.522 11.6333Z" fill="#FF7133"/>
<path d="M201.077 49.7393L156.742 44.871L153.769 71.9468L180.832 74.9185L182.049 63.8294L199.322 65.726L197.424 83.0064L186.34 81.7894L185.123 92.8784L145.683 88.5476L146.901 77.4586L135.817 76.2415L140.15 36.783L151.233 38.0001L152.451 26.911L202.975 32.4589L201.077 49.7393Z" fill="#FF7133"/>
<path d="M235.571 87.1952L236.788 76.1061L220.809 74.3515L218.374 96.5296L201.102 94.633L209.088 21.9073L226.36 23.804L222.707 57.0711L238.686 58.8257L239.903 47.7367L250.987 48.9537L252.205 37.8647L269.477 39.7613L267.58 57.0417L256.496 55.8247L255.278 66.9137L244.194 65.6966L243.657 70.5943L254.74 71.8114L253.523 82.9004L264.606 84.1175L262.709 101.398L245.437 99.5013L246.654 88.4122L235.571 87.1952Z" fill="#FF7133"/>
</g>
<defs>
<clipPath id="clip0_14_182">
<rect width="262.684" height="84.3185" fill="white" transform="translate(9.57986) rotate(6.26639)"/>
</clipPath>
</defs>
</svg>
