<svg width="46" height="46" viewBox="0 0 46 46" fill="none" xmlns="http://www.w3.org/2000/svg">
<path d="M21.995 14.0338C21.4647 13.3974 20.5188 13.3114 19.8824 13.8417C19.246 14.3721 19.16 15.3179 19.6903 15.9544L20.8427 14.9941L21.995 14.0338ZM27.1956 22.6176L28.348 23.5779C28.8115 23.0216 28.8115 22.2136 28.348 21.6574L27.1956 22.6176ZM19.6903 29.2809C19.16 29.9173 19.246 30.8632 19.8824 31.3935C20.5188 31.9239 21.4647 31.8379 21.995 31.2015L20.8427 30.2412L19.6903 29.2809ZM20.8427 14.9941L19.6903 15.9544L26.0433 23.5779L27.1956 22.6176L28.348 21.6574L21.995 14.0338L20.8427 14.9941ZM27.1956 22.6176L26.0433 21.6574L19.6903 29.2809L20.8427 30.2412L21.995 31.2015L28.348 23.5779L27.1956 22.6176ZM23 5.75V7.25C31.6985 7.25 38.75 14.3015 38.75 23H40.25H41.75C41.75 12.6447 33.3553 4.25 23 4.25V5.75ZM40.25 23H38.75C38.75 31.6985 31.6985 38.75 23 38.75V40.25V41.75C33.3553 41.75 41.75 33.3553 41.75 23H40.25ZM23 40.25V38.75C14.3015 38.75 7.25 31.6985 7.25 23H5.75H4.25C4.25 33.3553 12.6447 41.75 23 41.75V40.25ZM5.75 23H7.25C7.25 14.3015 14.3015 7.25 23 7.25V5.75V4.25C12.6447 4.25 4.25 12.6447 4.25 23H5.75Z" fill="white"/>
</svg>
