<svg width="14" height="24" viewBox="0 0 14 24" fill="none" xmlns="http://www.w3.org/2000/svg">
<path d="M11.3663 13.1377C11.6711 12.6772 12.2915 12.5507 12.752 12.8555C13.2125 13.1603 13.3389 13.7807 13.0342 14.2412L7.43365 22.7012C7.24843 22.9808 6.93506 23.1494 6.59967 23.1494C6.26446 23.1493 5.95182 22.9806 5.76666 22.7012L0.166074 14.2412C-0.138648 13.7807 -0.0121715 13.1603 0.448301 12.8555C0.908807 12.5508 1.52923 12.6773 1.83404 13.1377L6.59967 20.3369L11.3663 13.1377ZM11.3663 0.448272C11.6711 -0.0122235 12.2915 -0.138737 12.752 0.166046C13.2124 0.470831 13.3388 1.0913 13.0342 1.55179L7.43365 10.0117C7.24844 10.2914 6.93508 10.46 6.59967 10.46C6.26444 10.4599 5.95181 10.2912 5.76666 10.0117L0.166074 1.55179C-0.138594 1.09129 -0.01215 0.470851 0.448301 0.166046C0.908803 -0.138622 1.52924 -0.0121785 1.83404 0.448272L6.59967 7.64749L11.3663 0.448272Z" fill="white"/>
</svg>
