<svg width="67" height="68" viewBox="0 0 67 68" fill="none" xmlns="http://www.w3.org/2000/svg">
<path d="M66.625 33.8125C66.625 51.9343 51.9343 66.625 33.8125 66.625C15.6907 66.625 1 51.9343 1 33.8125C1 15.6907 15.6907 1 33.8125 1C51.9343 1 66.625 15.6907 66.625 33.8125Z" fill="#E4E4E4"/>
<path d="M64.5081 33.8125C64.5081 16.8598 50.7652 3.11694 33.8125 3.11694C16.8598 3.11694 3.11694 16.8598 3.11694 33.8125C3.11694 50.7652 16.8598 64.5081 33.8125 64.5081V66.625C15.6907 66.625 1 51.9343 1 33.8125C1 15.6907 15.6907 1 33.8125 1C51.9343 1 66.625 15.6907 66.625 33.8125C66.625 51.9343 51.9343 66.625 33.8125 66.625V64.5081C50.7652 64.5081 64.5081 50.7652 64.5081 33.8125Z" fill="#A2A2A2"/>
<g filter="url(#filter0_d_304_508)">
<path d="M55.375 33.8125C55.375 46.2389 45.5113 56.3125 33.3438 56.3125C21.1762 56.3125 11.3125 46.2389 11.3125 33.8125C11.3125 21.3861 21.1762 11.3125 33.3438 11.3125C45.5113 11.3125 55.375 21.3861 55.375 33.8125Z" fill="#E4E4E4"/>
</g>
<g filter="url(#filter1_d_304_508)">
<path d="M21.9898 49.75V44.8923L33.4805 34.1688C36.5356 31.2817 38.1316 29.4945 38.1316 26.9282C38.1316 24.0411 35.9884 22.2538 33.0246 22.2538C30.0151 22.2538 28.0088 24.1786 28.0088 27.2948H21.625C21.625 20.9707 26.3216 16.8921 33.1158 16.9379C40.0011 16.8921 44.6065 20.8332 44.6065 26.4699C44.6065 30.1819 42.8282 33.2065 36.1252 39.2098L31.2918 43.9758V44.2508H45.0625V49.75H21.9898Z" fill="#E4E4E4"/>
</g>
<defs>
<filter id="filter0_d_304_508" x="0.3125" y="0.3125" width="66.0625" height="67" filterUnits="userSpaceOnUse" color-interpolation-filters="sRGB">
<feFlood flood-opacity="0" result="BackgroundImageFix"/>
<feColorMatrix in="SourceAlpha" type="matrix" values="0 0 0 0 0 0 0 0 0 0 0 0 0 0 0 0 0 0 127 0" result="hardAlpha"/>
<feOffset/>
<feGaussianBlur stdDeviation="5.5"/>
<feComposite in2="hardAlpha" operator="out"/>
<feColorMatrix type="matrix" values="0 0 0 0 0 0 0 0 0 0 0 0 0 0 0 0 0 0 0.25 0"/>
<feBlend mode="normal" in2="BackgroundImageFix" result="effect1_dropShadow_304_508"/>
<feBlend mode="normal" in="SourceGraphic" in2="effect1_dropShadow_304_508" result="shape"/>
</filter>
<filter id="filter1_d_304_508" x="15.625" y="10.9375" width="35.4375" height="44.8125" filterUnits="userSpaceOnUse" color-interpolation-filters="sRGB">
<feFlood flood-opacity="0" result="BackgroundImageFix"/>
<feColorMatrix in="SourceAlpha" type="matrix" values="0 0 0 0 0 0 0 0 0 0 0 0 0 0 0 0 0 0 127 0" result="hardAlpha"/>
<feOffset/>
<feGaussianBlur stdDeviation="3"/>
<feComposite in2="hardAlpha" operator="out"/>
<feColorMatrix type="matrix" values="0 0 0 0 0 0 0 0 0 0 0 0 0 0 0 0 0 0 0.64 0"/>
<feBlend mode="normal" in2="BackgroundImageFix" result="effect1_dropShadow_304_508"/>
<feBlend mode="normal" in="SourceGraphic" in2="effect1_dropShadow_304_508" result="shape"/>
</filter>
</defs>
</svg>
