<svg width="21" height="21" viewBox="0 0 21 21" fill="none" xmlns="http://www.w3.org/2000/svg">
<path d="M10.5001 12.6001L9.84392 13.3547C10.2202 13.6819 10.78 13.6819 11.1563 13.3547L10.5001 12.6001ZM6.04828 13.4679C6.57956 13.317 6.88793 12.764 6.73706 12.2327C6.58619 11.7014 6.03319 11.3931 5.50192 11.5439L5.7751 12.5059L6.04828 13.4679ZM15.4983 11.5439C14.967 11.3931 14.414 11.7014 14.2631 12.2327C14.1123 12.764 14.4206 13.317 14.9519 13.4679L15.2251 12.5059L15.4983 11.5439ZM14.7001 6.20879H13.7001C13.7001 6.65554 13.5223 7.22574 13.1644 7.88705C12.8137 8.53498 12.3336 9.19156 11.833 9.79006C11.3352 10.3852 10.8346 10.9025 10.4571 11.2718C10.2689 11.4559 10.1129 11.6017 10.005 11.7005C9.95118 11.7498 9.90945 11.7873 9.8819 11.8119C9.86812 11.8242 9.8579 11.8332 9.85148 11.8389C9.84827 11.8417 9.84602 11.8437 9.84475 11.8448C9.84411 11.8453 9.84372 11.8457 9.84358 11.8458C9.84351 11.8458 9.84351 11.8459 9.84356 11.8458C9.84359 11.8458 9.84368 11.8457 9.84369 11.8457C9.8438 11.8456 9.84392 11.8455 10.5001 12.6001C11.1563 13.3547 11.1564 13.3546 11.1566 13.3544C11.1567 13.3544 11.1569 13.3542 11.157 13.3541C11.1573 13.3538 11.1577 13.3535 11.1581 13.3531C11.159 13.3523 11.1602 13.3513 11.1615 13.3501C11.1643 13.3477 11.1681 13.3444 11.1728 13.3402C11.1823 13.3319 11.1956 13.3201 11.2126 13.3049C11.2466 13.2746 11.2951 13.231 11.3561 13.1752C11.478 13.0635 11.65 12.9026 11.8556 12.7015C12.2656 12.3004 12.815 11.7334 13.3672 11.0732C13.9166 10.4162 14.4865 9.64619 14.9233 8.83895C15.3529 8.04511 15.7001 7.13161 15.7001 6.20879H14.7001ZM10.5001 12.6001C11.1563 11.8455 11.1564 11.8456 11.1565 11.8457C11.1565 11.8457 11.1566 11.8458 11.1566 11.8458C11.1567 11.8459 11.1567 11.8458 11.1566 11.8458C11.1565 11.8457 11.1561 11.8453 11.1554 11.8448C11.1542 11.8437 11.1519 11.8417 11.1487 11.8389C11.1423 11.8332 11.1321 11.8242 11.1183 11.8119C11.0907 11.7873 11.049 11.7498 10.9951 11.7005C10.8873 11.6017 10.7313 11.4559 10.5431 11.2718C10.1656 10.9025 9.66497 10.3852 9.16718 9.79006C8.66661 9.19156 8.18646 8.53498 7.83582 7.88705C7.47793 7.22574 7.3001 6.65554 7.3001 6.20879H6.3001H5.3001C5.3001 7.13161 5.64726 8.04511 6.07688 8.83895C6.51373 9.64619 7.08359 10.4162 7.63302 11.0732C8.18523 11.7334 8.73456 12.3004 9.14455 12.7015C9.35016 12.9026 9.52224 13.0635 9.64411 13.1752C9.70508 13.231 9.75359 13.2746 9.78756 13.3049C9.80455 13.3201 9.81791 13.3319 9.82739 13.3402C9.83212 13.3444 9.83589 13.3477 9.83866 13.3501C9.84004 13.3513 9.84118 13.3523 9.84205 13.3531C9.84249 13.3535 9.84287 13.3538 9.84318 13.3541C9.84333 13.3542 9.84352 13.3544 9.8436 13.3544C9.84377 13.3546 9.84392 13.3547 10.5001 12.6001ZM6.3001 6.20879H7.3001C7.3001 4.51251 8.71195 3.1001 10.5001 3.1001V2.1001V1.1001C7.64905 1.1001 5.3001 3.36673 5.3001 6.20879H6.3001ZM10.5001 2.1001V3.1001C12.2882 3.1001 13.7001 4.51251 13.7001 6.20879H14.7001H15.7001C15.7001 3.36673 13.3511 1.1001 10.5001 1.1001V2.1001ZM18.9001 15.4001H17.9001C17.9001 15.535 17.8387 15.754 17.5382 16.0501C17.2342 16.3496 16.7429 16.6653 16.0552 16.9519C14.6841 17.5232 12.7207 17.9001 10.5001 17.9001V18.9001V19.9001C12.9187 19.9001 15.1553 19.4935 16.8244 18.798C17.6568 18.4512 18.3957 18.0128 18.9418 17.4748C19.4914 16.9334 19.9001 16.2317 19.9001 15.4001H18.9001ZM10.5001 18.9001V17.9001C8.27953 17.9001 6.31609 17.5232 4.94502 16.9519C4.25729 16.6653 3.76604 16.3496 3.46199 16.0501C3.16148 15.754 3.1001 15.535 3.1001 15.4001H2.1001H1.1001C1.1001 16.2317 1.50882 16.9334 2.05843 17.4748C2.60451 18.0128 3.34341 18.4512 4.17578 18.798C5.84491 19.4935 8.08147 19.9001 10.5001 19.9001V18.9001ZM2.1001 15.4001H3.1001C3.1001 15.235 3.19912 14.9287 3.71619 14.5301C4.22323 14.1393 5.01216 13.7621 6.04828 13.4679L5.7751 12.5059L5.50192 11.5439C4.31963 11.8797 3.27106 12.3481 2.4952 12.9461C1.72937 13.5364 1.1001 14.3622 1.1001 15.4001H2.1001ZM15.2251 12.5059L14.9519 13.4679C15.988 13.7621 16.777 14.1393 17.284 14.5301C17.8011 14.9287 17.9001 15.235 17.9001 15.4001H18.9001H19.9001C19.9001 14.3622 19.2708 13.5364 18.505 12.9461C17.7291 12.3481 16.6806 11.8797 15.4983 11.5439L15.2251 12.5059Z" fill="#D5F08A"/>
</svg>
