<svg width="68" height="68" viewBox="0 0 68 68" fill="none" xmlns="http://www.w3.org/2000/svg">
<path d="M66.625 33.8125C66.625 51.9343 51.9343 66.625 33.8125 66.625C15.6907 66.625 1 51.9343 1 33.8125C1 15.6907 15.6907 1 33.8125 1C51.9343 1 66.625 15.6907 66.625 33.8125Z" fill="#BC7133"/>
<path d="M64.5081 33.8125C64.5081 16.8598 50.7652 3.11694 33.8125 3.11694C16.8598 3.11694 3.11694 16.8598 3.11694 33.8125C3.11694 50.7652 16.8598 64.5081 33.8125 64.5081V66.625C15.6907 66.625 1 51.9343 1 33.8125C1 15.6907 15.6907 1 33.8125 1C51.9343 1 66.625 15.6907 66.625 33.8125C66.625 51.9343 51.9343 66.625 33.8125 66.625V64.5081C50.7652 64.5081 64.5081 50.7652 64.5081 33.8125Z" fill="#9F4D17"/>
<g filter="url(#filter0_d_304_509)">
<path d="M56.3125 33.8125C56.3125 46.2389 46.2389 56.3125 33.8125 56.3125C21.3861 56.3125 11.3125 46.2389 11.3125 33.8125C11.3125 21.3861 21.3861 11.3125 33.8125 11.3125C46.2389 11.3125 56.3125 21.3861 56.3125 33.8125Z" fill="#BC7133"/>
</g>
<g filter="url(#filter1_d_304_509)">
<path d="M34.6535 51.625C27.1259 51.625 21.7698 47.405 21.625 41.4185H28.7665C28.9113 43.9211 31.3722 45.6385 34.6535 45.6385C38.0795 45.6385 40.4922 43.7248 40.4439 40.9278C40.4922 38.1308 38.0313 36.119 33.9779 36.119H30.8897V30.8195H33.9779C37.404 30.7704 39.7201 28.9057 39.6719 26.1088C39.7201 23.5081 37.7417 21.6925 34.75 21.6925C31.71 21.6925 29.2008 23.4099 29.1526 26.1088H22.3006C22.4453 20.1223 27.7532 15.9514 34.75 16.0004C41.8433 15.9514 46.5722 20.2695 46.5239 25.7162C46.5722 29.6418 43.9182 32.3897 40.0579 33.0767V33.3711C45.1245 33.9599 47.875 37.0513 47.875 41.4185C47.875 47.3559 42.3258 51.625 34.6535 51.625Z" fill="#BC7133"/>
</g>
<defs>
<filter id="filter0_d_304_509" x="0.3125" y="0.3125" width="67" height="67" filterUnits="userSpaceOnUse" color-interpolation-filters="sRGB">
<feFlood flood-opacity="0" result="BackgroundImageFix"/>
<feColorMatrix in="SourceAlpha" type="matrix" values="0 0 0 0 0 0 0 0 0 0 0 0 0 0 0 0 0 0 127 0" result="hardAlpha"/>
<feOffset/>
<feGaussianBlur stdDeviation="5.5"/>
<feComposite in2="hardAlpha" operator="out"/>
<feColorMatrix type="matrix" values="0 0 0 0 0 0 0 0 0 0 0 0 0 0 0 0 0 0 0.25 0"/>
<feBlend mode="normal" in2="BackgroundImageFix" result="effect1_dropShadow_304_509"/>
<feBlend mode="normal" in="SourceGraphic" in2="effect1_dropShadow_304_509" result="shape"/>
</filter>
<filter id="filter1_d_304_509" x="15.625" y="10" width="38.25" height="47.625" filterUnits="userSpaceOnUse" color-interpolation-filters="sRGB">
<feFlood flood-opacity="0" result="BackgroundImageFix"/>
<feColorMatrix in="SourceAlpha" type="matrix" values="0 0 0 0 0 0 0 0 0 0 0 0 0 0 0 0 0 0 127 0" result="hardAlpha"/>
<feOffset/>
<feGaussianBlur stdDeviation="3"/>
<feComposite in2="hardAlpha" operator="out"/>
<feColorMatrix type="matrix" values="0 0 0 0 0 0 0 0 0 0 0 0 0 0 0 0 0 0 0.64 0"/>
<feBlend mode="normal" in2="BackgroundImageFix" result="effect1_dropShadow_304_509"/>
<feBlend mode="normal" in="SourceGraphic" in2="effect1_dropShadow_304_509" result="shape"/>
</filter>
</defs>
</svg>
